
	<svg xmlns="http://www.w3.org/2000/svg" xmlns:xlink="http://www.w3.org/1999/xlink" version="1.1" width="500" height="500" viewBox="0 0 100 100">


		<defs>
			<linearGradient id="Gradient_1" gradientUnits="userSpaceOnUse" x1="50" y1="44" x2="50" y2="0" spreadMethod="pad">
<stop offset="0%" stop-color="#FFFFFF" stop-opacity="0.3"/>

<stop offset="100%" stop-color="#FFFFFF" stop-opacity="0.7"/>
</linearGradient><linearGradient id="Gradient_2" gradientUnits="userSpaceOnUse" x1="95" y1="37" x2="6" y2="37" spreadMethod="pad">
<stop offset="0%" stop-color="#FFFFFF" stop-opacity="0.1"/>

<stop offset="100%" stop-color="#FFFFFF" stop-opacity="0.7"/>
</linearGradient><linearGradient id="Gradient_3" gradientUnits="userSpaceOnUse" x1="5" y1="38" x2="94" y2="38" spreadMethod="pad">
<stop offset="0%" stop-color="#FFFFFF" stop-opacity="0.1"/>

<stop offset="100%" stop-color="#FFFFFF" stop-opacity="0.7"/>
</linearGradient><g id="background">
<path fill="url(#background-gradient)" stroke="none" d=" M 93.45 24.95 Q 91.65 21.8 89.05 20.35 L 56.25 1.5 Q 53.65 0 50 0 46.3 0 43.75 1.5 L 10.9 20.35 Q 8.35 21.8 6.5 24.95 4.7 28.15 4.7 31.1 L 4.7 68.85 Q 4.7 71.8 6.5 75 8.35 78.15 10.9 79.6 L 43.75 98.5 Q 46.3 100 50 100 53.65 100 56.25 98.5 L 89.05 79.6 Q 91.65 78.15 93.45 75 95.3 71.8 95.3 68.85 L 95.3 31.1 Q 95.3 28.15 93.45 24.95 Z"/>
</g><mask id="mask">
<path fill="#FFFFFF" stroke="none" d=" M 95.3 31.1 Q 95.3 28.15 93.45 24.95 91.65 21.8 89.05 20.35 L 56.25 1.5 Q 53.65 0 50 0 46.3 0 43.75 1.5 L 10.9 20.35 Q 8.35 21.8 6.5 24.95 4.7 28.15 4.7 31.1 L 4.7 68.85 Q 4.7 71.8 6.5 75 8.35 78.15 10.9 79.6 L 43.75 98.5 Q 46.3 100 50 100 53.65 100 56.25 98.5 L 89.05 79.6 Q 91.65 78.15 93.45 75 95.3 71.8 95.3 68.85 L 95.3 31.1 Z"/>
</mask><g id="gloss-top">
<path fill="url(#Gradient_1)" stroke="none" d=" M 93.6 25.35 Q 91.8 21.95 89.05 20.35 L 56.25 1.5 Q 53.65 0 50 0 46.3 0 43.75 1.5 L 10.9 20.35 Q 8.1 21.95 6.35 25.35 14.7 34.4 25.85 39.3 37.35 44.45 50 44.45 62.65 44.45 74.15 39.3 85.2 34.4 93.6 25.35 Z"/>
</g><g id="gloss-right">
<path fill="url(#Gradient_2)" stroke="none" d=" M 95.3 31.1 Q 95.3 28.15 93.45 24.95 91.65 21.8 89.05 20.35 L 56.25 1.5 Q 53.65 0 50 0 46.3 0 43.75 1.5 L 10.9 20.35 Q 8.25 21.9 6.35 25.25 L 93.75 74.4 Q 95.3 71.55 95.3 68.85 L 95.3 31.1 Z"/>
</g><g id="gloss-left">
<path fill="url(#Gradient_3)" stroke="none" d=" M 93.5 25.15 Q 91.75 21.95 89.05 20.35 L 56.25 1.5 Q 53.65 0 50 0 46.3 0 43.75 1.5 L 10.9 20.35 Q 8.35 21.8 6.5 24.95 4.7 28.15 4.7 31.1 L 4.7 68.85 Q 4.7 72 6.7 75.25 L 93.5 25.15 Z"/>
</g>
			
	<linearGradient id="background-gradient" x1="0" y1="0" y2="1" x2="0" >
		<stop stop-color="#fdfb58" offset="0%"/>
		<stop stop-color="#ac30e5" offset="100%"/>
	</linearGradient>

			
			
			<g transform="scale(2.0790023098351393) translate(0.049999237060546875 0)" id="picture"><path d="M37.2 0H10.8C7.9 0 5.6 2.4 5.6 5.3V9c0 2.9 2.4 5.3 5.3 5.3h26.3c2.9 0 5.3-2.4 5.3-5.3V5.3C42.4 2.4 40.1 0 37.2 0zm0 16.9H10.8c-2.9 0-5.3 2.4-5.3 5.3V26c0 2.9 2.4 5.3 5.3 5.3h26.3c2.9 0 5.3-2.4 5.3-5.3v-3.8c0-3-2.3-5.3-5.2-5.3zm0 16.8H10.8c-2.9 0-5.3 2.4-5.3 5.3v3.8c0 2.9 2.4 5.3 5.3 5.3h26.3c2.9 0 5.3-2.4 5.3-5.3V39c0-2.9-2.3-5.3-5.2-5.3z"/></g>
			
	<linearGradient id="picture-gradient" x1="0" y1="0" y2="1" x2="0" >
		<stop stop-color="#ffffff" offset="0%"/>
		<stop stop-color="#e5eff9" offset="100%"/>
	</linearGradient>

		</defs>

		

			<use xlink:href="#background" fill="url(#background-gradient)" />

		

			<g mask="url(#mask)">
				<g transform="
				        translate(
                                50 50
)
                            translate(0 0)  scale(0.6000000000000001)  
                            translate(
                                -50 -50
)">
						<use xlink:href="#picture" fill="url(#picture-gradient)"  />
				</g>
			</g>

		

			<use xlink:href="#gloss-top" opacity="1" />


	</svg>
